<?xml version="1.0" encoding="iso-8859-1"?>
<!-- Uploaded to: SVG Repo, www.svgrepo.com, Generator: SVG Repo Mixer Tools -->
<svg version="1.1" id="Layer_1" xmlns="http://www.w3.org/2000/svg" xmlns:xlink="http://www.w3.org/1999/xlink" 
	 viewBox="0 0 512 512" xml:space="preserve">
<path style="fill:#A7DC5E;" d="M467.235,365.714V83.257C467.235,37.348,429.886,0,383.978,0H128.021
	C82.113,0,44.764,37.348,44.764,83.257v282.458h422.471V365.714z"/>
<rect x="44.766" y="421.587" style="fill:#575759;" width="48.762" height="90.413"/>
<rect x="418.47" y="421.587" style="fill:#474748;" width="48.762" height="90.413"/>
<path style="fill:#589423;" d="M497.208,443.394V257.055c0-26.971-21.865-48.835-48.835-48.835h-40.796
	c-26.971,0-48.835,21.865-48.835,48.835v59.897H153.258v-59.897c0-26.971-21.865-48.835-48.835-48.835H63.627
	c-26.971,0-48.835,21.865-48.835,48.835v186.339H497.208z"/>
<path style="fill:#97C655;" d="M467.235,83.257C467.235,37.348,429.886,0,383.978,0H255.999v365.714h211.236L467.235,83.257
	L467.235,83.257z"/>
<path style="fill:#50851F;" d="M497.208,257.055c0-26.971-21.865-48.835-48.835-48.835h-40.796
	c-26.971,0-48.835,21.865-48.835,48.835v59.897H255.999v126.442h241.209V257.055z"/>
</svg>