<?xml version="1.0" encoding="iso-8859-1"?>
<!-- Uploaded to: SVG Repo, www.svgrepo.com, Generator: SVG Repo Mixer Tools -->
<svg height="800px" width="800px" version="1.1" id="Layer_1" xmlns="http://www.w3.org/2000/svg" xmlns:xlink="http://www.w3.org/1999/xlink" 
	 viewBox="0 0 512 512" xml:space="preserve">
<g transform="translate(1 1)">
	<path style="fill:#FFA800;" d="M417.133,169.667c0-11.093-8.533-25.6-21.333-25.6c-12.8,0-21.333,14.507-21.333,25.6v8.533
		c0-12.8-8.533-25.6-21.333-25.6c-12.8,0-21.333,12.8-21.333,25.6v156.16c0,0.853,0,1.707,0,1.707v0.853
		c0-16.213-11.093-52.053-26.453-67.413c-12.8-12.8-49.493-4.267-29.867,23.893c13.653,19.627,22.187,60.587,22.187,82.773
		c0,52.907,42.667,66.56,42.667,66.56v34.133c0,9.387,0,25.6,17.92,25.6h105.813c21.333,0,21.333-16.213,21.333-25.6v-34.133
		c18.773-25.6,17.067-19.627,17.067-78.507V212.333c0-11.093-8.533-25.6-21.333-25.6c-12.8,0-21.333,14.507-21.333,25.6v-25.6
		c0-11.093-8.533-25.6-22.187-25.6c-11.947,0-20.48,14.507-20.48,25.6V169.667z"/>
	<path style="fill:#FFE100;" d="M419.693,169.667c0-11.093-8.533-25.6-21.333-25.6s-21.333,14.507-21.333,25.6v8.533
		c0-12.8-8.533-25.6-21.333-25.6c-12.8,0-21.333,12.8-21.333,25.6v156.16c0,0.853,0,1.707,0,1.707v0.853
		c0-16.213-11.093-52.053-26.453-67.413c-12.8-12.8-49.493-4.267-29.867,23.893c13.653,19.627,22.187,60.587,22.187,82.773
		c0,52.907,42.667,66.56,42.667,66.56v34.133c0,9.387,0,25.6,17.92,25.6h105.813c21.333,0-4.267-16.213-4.267-25.6v-34.133
		c18.773-25.6,17.067-19.627,17.067-78.507V212.333c0-11.093-8.533-25.6-21.333-25.6c-12.8,0,4.267,14.507,4.267,25.6v-25.6
		c0-11.093-8.533-25.6-22.187-25.6c-11.947,0-20.48,14.507-20.48,25.6L419.693,169.667L419.693,169.667z"/>
	<path style="fill:#FFFFFF;" d="M92.867,169.667c0-11.093,8.533-25.6,21.333-25.6s20.48,14.507,20.48,25.6v8.533
		c0-12.8,8.533-25.6,21.333-25.6s21.333,12.8,21.333,25.6v156.16c0,0.853,0,1.707,0,1.707v0.853
		c0-16.213,11.093-52.053,26.453-67.413c12.8-12.8,49.493-4.267,29.867,23.893c-12.8,19.627-21.333,61.44-21.333,82.773
		c0,52.907-42.667,66.56-42.667,66.56v34.133c0,9.387-0.853,25.6-17.92,25.6H45.933c-21.333,0-21.333-16.213-21.333-25.6v-34.133
		c-18.773-25.6-17.067-19.627-17.067-78.507V212.333c0-11.093,8.533-25.6,21.333-25.6S50.2,201.24,50.2,212.333v-25.6
		c0-11.093,8.533-25.6,22.187-25.6c11.947,0,20.48,14.507,20.48,25.6V169.667z"/>
	<g>
		<path style="fill:#FFE100;" d="M97.133,169.667c0-11.093,8.533-25.6,21.333-25.6s21.333,14.507,21.333,25.6v8.533
			c0-12.8,8.533-25.6,21.333-25.6s21.333,12.8,21.333,25.6v156.16c0,0.853,0,1.707,0,1.707v0.853
			c0-16.213,11.093-52.053,26.453-67.413l0,0c12.8-12.8,49.493-4.267,29.867,23.893c-13.653,19.627-22.187,60.587-22.187,82.773
			c0,52.907-42.667,66.56-42.667,66.56v34.133c0,9.387-0.853,25.6-17.92,25.6H67.267c-21.333,0-17.067-16.213-17.067-25.6v-34.133
			c-18.773-25.6-17.067-19.627-17.067-78.507V212.333c0-11.093,8.533-25.6,21.333-25.6s0,14.507,0,25.6v-25.6
			c0-11.093,8.533-25.6,22.187-25.6c11.947,0,20.48,14.507,20.48,25.6V169.667z"/>
		<path style="fill:#FFE100;" d="M263.533,101.4c-5.12,0-8.533-3.413-8.533-8.533V7.533C255,2.413,258.413-1,263.533-1
			c5.12,0,8.533,3.413,8.533,8.533v85.333C272.067,97.987,268.653,101.4,263.533,101.4z"/>
		<path style="fill:#FFE100;" d="M331.8,101.4c-2.56,0-4.267-0.853-5.973-2.56c-3.413-3.413-3.413-8.533,0-11.947l68.267-68.267
			c3.413-3.413,8.533-3.413,11.947,0c3.413,3.413,3.413,8.533,0,11.947L337.773,98.84C336.067,100.547,334.36,101.4,331.8,101.4z"/>
		<path style="fill:#FFE100;" d="M203.8,101.4c-2.56,0-4.267-0.853-5.973-2.56L129.56,30.573c-3.413-3.413-3.413-8.533,0-11.947
			s8.533-3.413,11.947,0l68.267,68.267c3.413,3.413,3.413,8.533,0,11.947C208.067,100.547,206.36,101.4,203.8,101.4z"/>
	</g>
	<path d="M169.667,451.267H152.6c-5.12,0-8.533-3.413-8.533-8.533c0-5.12,3.413-8.533,8.533-8.533h17.067
		c5.12,0,8.533,3.413,8.533,8.533C178.2,447.853,174.787,451.267,169.667,451.267z"/>
	<path d="M41.667,451.267H24.6c-5.12,0-8.533-3.413-8.533-8.533c0-5.12,3.413-8.533,8.533-8.533h17.067
		c5.12,0,8.533,3.413,8.533,8.533C50.2,447.853,46.787,451.267,41.667,451.267z"/>
	<path d="M50.2,331.8c-5.12,0-8.533-3.413-8.533-8.533V212.333c0-5.12,3.413-8.533,8.533-8.533s8.533,3.413,8.533,8.533v110.933
		C58.733,328.387,55.32,331.8,50.2,331.8z"/>
	<path d="M92.867,323.267c-5.12,0-8.533-3.413-8.533-8.533v-128c0-5.12,3.413-8.533,8.533-8.533s8.533,3.413,8.533,8.533v128
		C101.4,319.853,97.987,323.267,92.867,323.267z"/>
	<path d="M135.533,323.267c-5.12,0-8.533-3.413-8.533-8.533V178.2c0-5.12,3.413-8.533,8.533-8.533s8.533,3.413,8.533,8.533v136.533
		C144.067,319.853,140.653,323.267,135.533,323.267z"/>
	<path d="M151.747,511H45.933c-29.867,0-29.867-24.747-29.867-34.133v-31.573l-0.853-1.707C-1,423.107-1,420.547-1,380.44V212.333
		C-1,196.12,10.947,178.2,28.867,178.2c5.12,0,9.387,1.707,12.8,3.413c2.56-14.507,14.507-29.013,30.72-29.013
		c5.12,0,10.24,1.707,14.507,5.12c4.267-11.947,14.507-22.187,27.307-22.187c10.24,0,19.627,6.827,24.747,15.36
		c5.12-4.267,11.093-6.827,17.92-6.827c17.92,0,29.867,17.92,29.867,34.133v102.4c3.413-6.827,7.68-11.947,11.947-17.067
		c10.24-10.24,30.72-11.093,42.667-1.707c3.413,3.413,15.36,15.36,0,35.84c-12.8,17.92-20.48,57.173-20.48,77.653
		c0,41.813-25.6,64-42.667,72.533v28.16C178.2,499.907,169.667,511,151.747,511z M28.867,195.267c-7.68,0-12.8,10.24-12.8,17.067
		V380.44c0,36.693,0,36.693,12.8,53.76l2.56,3.413c0.853,1.707,1.707,3.413,1.707,5.12v34.133c0,12.8,0.853,17.067,12.8,17.067
		h105.813c5.973,0,9.387-2.56,9.387-17.067v-34.133c0-3.413,2.56-6.827,5.973-7.68c1.707-0.853,36.693-12.8,36.693-58.027
		c0-23.04,8.533-65.707,23.893-87.893c3.413-4.267,5.973-10.24,2.56-12.8c-4.267-4.267-15.36-3.413-18.773,0.853
		c-14.507,12.8-24.747,46.08-24.747,60.587c0,4.267-3.413,7.68-7.68,8.533c-4.267,0.853-8.533-2.56-9.387-6.827v-0.853
		c0-0.853,0-1.707,0-2.56v-0.853V178.2c0-7.68-5.973-17.067-12.8-17.067c-7.68,0-12.8,9.387-12.8,17.067
		c0,5.12-3.413,8.533-8.533,8.533S127,183.32,127,178.2v-8.533c0-7.68-5.973-17.067-12.8-17.067c-7.68,0-12.8,10.24-12.8,17.067
		v17.067c0,5.12-3.413,8.533-8.533,8.533s-8.533-3.413-8.533-8.533c0-7.68-5.973-17.067-11.947-17.067
		c-7.68,0-13.653,10.24-13.653,17.067v25.6c0,5.12-3.413,8.533-8.533,8.533s-8.533-3.413-8.533-8.533
		C41.667,204.653,35.693,195.267,28.867,195.267z"/>
	<path d="M357.4,451.267h-17.067c-5.12,0-8.533-3.413-8.533-8.533c0-5.12,3.413-8.533,8.533-8.533H357.4
		c5.12,0,8.533,3.413,8.533,8.533C365.933,447.853,362.52,451.267,357.4,451.267z"/>
	<path d="M485.4,451.267h-17.067c-5.12,0-8.533-3.413-8.533-8.533c0-5.12,3.413-8.533,8.533-8.533H485.4
		c5.12,0,8.533,3.413,8.533,8.533C493.933,447.853,490.52,451.267,485.4,451.267z"/>
	<path d="M459.8,331.8c-5.12,0-8.533-3.413-8.533-8.533V212.333c0-5.12,3.413-8.533,8.533-8.533s8.533,3.413,8.533,8.533v110.933
		C468.333,328.387,464.92,331.8,459.8,331.8z"/>
	<path d="M417.133,323.267c-5.12,0-8.533-3.413-8.533-8.533v-128c0-5.12,3.413-8.533,8.533-8.533s8.533,3.413,8.533,8.533v128
		C425.667,319.853,422.253,323.267,417.133,323.267z"/>
	<path d="M374.467,323.267c-5.12,0-8.533-3.413-8.533-8.533V178.2c0-5.12,3.413-8.533,8.533-8.533c5.12,0,8.533,3.413,8.533,8.533
		v136.533C383,319.853,379.587,323.267,374.467,323.267z"/>
	<path d="M464.067,511H358.253c-26.453,0-26.453-25.6-26.453-34.133v-28.16c-17.067-8.533-42.667-30.72-42.667-72.533
		c0-20.48-7.68-59.733-20.48-77.653c-15.36-20.48-3.413-33.28,0-35.84c11.093-9.387,31.573-8.533,42.667,1.707
		c4.267,4.267,8.533,10.24,11.947,17.067v-102.4c0-16.213,11.947-34.133,29.867-34.133c6.827,0,12.8,2.56,17.92,6.827
		c5.12-8.533,13.653-15.36,24.747-15.36c13.653,0,23.893,10.24,28.16,22.187c4.267-2.56,9.387-5.12,14.507-5.12
		c16.213,0,27.307,14.507,29.867,29.013c4.267-2.56,8.533-3.413,12.8-3.413c17.92,0,29.867,17.92,29.867,34.133v168.107
		c0,40.107,0,42.667-16.213,64l-0.853,0v31.573C493.933,487.107,493.933,511,464.067,511z M289.133,272.92
		c-3.413,0-6.827,0.853-9.387,2.56c-3.413,2.56-0.853,8.533,2.56,12.8c15.36,22.187,23.893,64.853,23.893,87.893
		c0,45.227,34.987,58.027,36.693,58.027c3.413,0.853,5.973,4.267,5.973,7.68v34.133c0,14.507,2.56,17.067,9.387,17.067h105.813
		c11.093,0,12.8-4.267,12.8-16.213v-34.133c0-1.707,0.853-3.413,1.707-5.12l2.56-3.413c12.8-17.067,12.8-17.067,12.8-53.76V212.333
		c0-6.827-5.12-17.067-12.8-17.067c-6.827,0-12.8,9.387-12.8,17.067c0,5.12-3.413,8.533-8.533,8.533s-8.533-3.413-8.533-8.533v-25.6
		c0-6.827-5.973-17.067-13.653-17.067c-6.827,0-11.947,9.387-11.947,17.067c0,5.12-3.413,8.533-8.533,8.533
		s-8.533-3.413-8.533-8.533v-17.067c0-6.827-5.12-17.067-12.8-17.067c-6.827,0-12.8,9.387-12.8,17.067v8.533
		c0,4.267-4.267,8.533-8.533,8.533l0,0c-5.12,0-8.533-3.413-8.533-8.533c0-7.68-5.12-17.067-12.8-17.067
		c-6.827,0-12.8,9.387-12.8,17.067v156.16v0.853c0,0.853,0,1.707,0,2.56v0.853c-0.853,4.267-5.12,6.827-9.387,5.973
		c-4.267-0.853-7.68-4.267-7.68-8.533c0-14.507-10.24-47.787-23.893-61.44C296.813,273.773,292.547,272.92,289.133,272.92z"/>
	<path d="M255,101.4c-5.12,0-8.533-3.413-8.533-8.533V7.533C246.467,2.413,249.88-1,255-1s8.533,3.413,8.533,8.533v85.333
		C263.533,97.987,260.12,101.4,255,101.4z"/>
	<path d="M323.267,101.4c-2.56,0-4.267-0.853-5.973-2.56c-3.413-3.413-3.413-8.533,0-11.947l68.267-68.267
		c3.413-3.413,8.533-3.413,11.947,0c3.413,3.413,3.413,8.533,0,11.947L329.24,98.84C327.533,100.547,325.827,101.4,323.267,101.4z"
		/>
	<path d="M195.267,101.4c-2.56,0-4.267-0.853-5.973-2.56l-68.267-68.267c-3.413-3.413-3.413-8.533,0-11.947s8.533-3.413,11.947,0
		l68.267,68.267c3.413,3.413,3.413,8.533,0,11.947C199.533,100.547,197.827,101.4,195.267,101.4z"/>
</g>
</svg>