<?xml version="1.0" encoding="iso-8859-1"?>
<!-- Uploaded to: SVG Repo, www.svgrepo.com, Generator: SVG Repo Mixer Tools -->
<svg height="800px" width="800px" version="1.1" id="Layer_1" xmlns="http://www.w3.org/2000/svg" xmlns:xlink="http://www.w3.org/1999/xlink" 
	 viewBox="0 0 512 512" xml:space="preserve">
<path style="fill:#E6E7E8;" d="M385.569,57.057H12.552l0,0c-16.466,29.303-16.747,65.003-0.748,94.562L12.552,153h193.37
	c16.871,0,33.073-6.597,45.145-18.381l0,0c12.072-11.785,28.274-18.381,45.145-18.381h146.627c32.353,0,60.694-21.678,69.161-52.904
	l0,0l-23.313-14.347L475.93,61.112c-19.206,18.254-48.25,21.406-70.924,7.697L385.569,57.057z"/>
<g>
	<path style="fill:#D1D3D4;" d="M405.005,68.808l-9.124-5.517c0.902,3.964,0.923,8.104-0.044,12.21
		c-3.218,13.674-6.772,27.257-10.653,40.736h41.893c2.862-10.444,5.555-20.939,8.039-31.492c0.582-2.475,1.01-4.969,1.306-7.471
		C425.631,77.459,414.732,74.69,405.005,68.808z"/>
	<path style="fill:#D1D3D4;" d="M327.599,116.237c5.408-17.464,10.241-35.119,14.448-52.943c0.523-2.215,1.317-4.291,2.299-6.238
		h-42.311c-4.882,20.309-10.6,40.389-17.118,60.193c3.705-0.659,7.482-1.013,11.296-1.013h31.387V116.237z"/>
</g>
<path style="fill:#F2BA43;" d="M322.412,58.659c-31.766,134.562-97.802,255.885-188.384,354.259
	c-11.872,12.894-11.962,32.702-0.147,45.649l18.952,20.766c13.289,14.561,36.226,14.73,49.624,0.269
	C305.017,368.896,379.728,232.025,415.477,80.123c6.451-27.409-12.353-54.362-40.269-58.059l0,0
	C350.808,18.833,328.068,34.704,322.412,58.659z"/>
<g>
	<path style="fill:#EDA21D;" d="M375.208,22.065L375.208,22.065c-0.327-0.044-0.654-0.07-0.981-0.106
		c8.605,10.926,12.433,25.51,8.968,40.232c-35.749,151.902-110.46,288.772-213.021,399.479c-6.409,6.917-15,10.478-23.675,10.727
		l6.331,6.938c13.289,14.561,36.226,14.73,49.624,0.27c102.562-110.707,177.273-247.578,213.022-399.48
		C421.927,52.715,403.122,25.761,375.208,22.065z"/>
	<circle style="fill:#EDA21D;" cx="161.674" cy="435.617" r="10.087"/>
</g>
<path style="fill:#D1D3D4;" d="M0.776,117.25c1.494,11.87,5.162,23.533,11.028,34.37l0.748,1.381h193.37
	c16.871,0,33.073-6.597,45.145-18.381l0,0c9.343-9.121,21.163-15.116,33.849-17.369H0.776V117.25z"/>
</svg>