<?xml version="1.0" encoding="iso-8859-1"?>
<!-- Uploaded to: SVG Repo, www.svgrepo.com, Generator: SVG Repo Mixer Tools -->
<svg height="800px" width="800px" version="1.1" id="Layer_1" xmlns="http://www.w3.org/2000/svg" xmlns:xlink="http://www.w3.org/1999/xlink" 
	 viewBox="0 0 512 512" xml:space="preserve">
<path style="fill:#99E5FF;" d="M255.995,110.845c-9.425,0-17.067-7.641-17.067-17.067V17.067C238.929,7.641,246.57,0,255.995,0
	h77.234c27.073,0,49.1,22.026,49.1,49.1c0,9.425-7.641,17.067-17.067,17.067s-17.067-7.641-17.067-17.067
	c0-8.252-6.714-14.966-14.966-14.966h-60.167v59.645C273.063,103.203,265.422,110.845,255.995,110.845z"/>
<g>
	<path style="fill:#4AD0FF;" d="M333.23,0H256v110.845c9.424-0.002,17.063-7.642,17.063-17.067V34.133h60.167
		c8.252,0,14.966,6.714,14.966,14.966c0,9.425,7.641,17.067,17.067,17.067c9.425,0,17.067-7.641,17.067-17.067
		C382.33,22.026,360.304,0,333.23,0z"/>
	<path style="fill:#4AD0FF;" d="M305.112,165.697h-98.224c-9.425,0-17.067-7.641-17.067-17.067V93.778
		c0-9.425,7.641-17.067,17.067-17.067h98.224c9.425,0,17.067,7.641,17.067,17.067v54.852
		C322.179,158.057,314.538,165.697,305.112,165.697z"/>
</g>
<path style="fill:#16A5D9;" d="M305.112,76.711H256v88.986h49.112c9.425,0,17.067-7.641,17.067-17.067V93.778
	C322.179,84.353,314.538,76.711,305.112,76.711z"/>
<path style="fill:#99E5FF;" d="M388.019,512H123.981c-9.425,0-17.067-7.641-17.067-17.067V194.141
	c0-34.505,28.072-62.578,62.578-62.578h173.015c34.505,0,62.578,28.072,62.578,62.578v300.792
	C405.085,504.359,397.444,512,388.019,512z"/>
<path style="fill:#4AD0FF;" d="M342.508,131.564H256V512h132.019c9.425,0,17.067-7.641,17.067-17.067V194.141
	C405.085,159.636,377.013,131.564,342.508,131.564z"/>
<path style="fill:#FAE8AC;" d="M308.374,432.356H203.626c-9.425,0-17.067-7.641-17.067-17.067V228.275
	c0-9.425,7.641-17.067,17.067-17.067h104.748c9.425,0,17.067,7.641,17.067,17.067v187.014
	C325.441,424.714,317.8,432.356,308.374,432.356z"/>
<path style="fill:#F6D86E;" d="M308.374,211.208H256v221.148h52.374c9.425,0,17.067-7.641,17.067-17.067V228.275
	C325.441,218.849,317.8,211.208,308.374,211.208z"/>
</svg>