<?xml version="1.0" encoding="utf-8"?>
<!-- Uploaded to: SVG Repo, www.svgrepo.com, Generator: SVG Repo Mixer Tools -->
<svg width="800px" height="800px" viewBox="0 0 1024 1024" class="icon"  version="1.1" xmlns="http://www.w3.org/2000/svg"><path d="M561.662 717.008l65.913-65.914-339.714-339.713-10.04-10.041c-35.122-35.12-92.064-35.12-127.184 0l411.025 415.668z" fill="#FCB814" /><path d="M561.662 717.008l65.913-65.914-339.714-339.713-10.04-10.041c-35.122-35.12-92.064-35.12-127.184 0l411.025 415.668z" fill="" /><path d="M561.367 326.827l65.913 65.913-337.097 337.097-10.041 10.041c-35.12 35.12-92.063 35.12-127.184 0l408.409-413.051z" fill="#FCB814" /><path d="M419.567 524.459m-28.456 0a28.456 28.456 0 1 0 56.912 0 28.456 28.456 0 1 0-56.912 0Z" fill="#152B3C" /><path d="M697.601 63.316c-96.336 0-174.43 78.093-174.43 174.433 0 96.329 78.094 174.423 174.43 174.423 96.335 0 174.429-78.094 174.429-174.423-0.001-96.34-78.095-174.433-174.429-174.433z m0 271.823c-53.79 0-97.395-43.601-97.395-97.389s43.605-97.399 97.395-97.399c53.788 0 97.392 43.611 97.392 97.399 0 53.788-43.604 97.389-97.392 97.389zM694.86 610.46c-96.336 0-174.43 78.094-174.43 174.423 0 96.339 78.094 174.433 174.43 174.433 96.335 0 174.429-78.094 174.429-174.433 0-96.329-78.094-174.423-174.429-174.423z m0 271.823c-53.79 0-97.394-43.612-97.394-97.4 0-53.788 43.604-97.389 97.394-97.389 53.788 0 97.394 43.601 97.394 97.389 0 53.789-43.606 97.4-97.394 97.4z" fill="#FCB814" /><path d="M618.82 294.601c-11.59-16.025-18.615-35.562-18.615-56.851 0-53.788 43.604-97.399 97.394-97.399 21.289 0 40.823 7.023 56.849 18.613-17.693-24.459-46.275-40.531-78.767-40.531-53.79 0-97.394 43.61-97.394 97.4 0.001 32.493 16.074 61.078 40.533 78.768z" fill="" /><path d="M809.451 103.962c25.355 30.291 40.66 69.279 40.66 111.87 0 96.329-78.096 174.423-174.43 174.423-42.59 0-81.576-15.305-111.864-40.66 31.998 38.228 80.029 62.578 133.782 62.578 96.335 0 174.43-78.094 174.43-174.423 0-53.754-24.35-101.79-62.578-133.788zM616.091 841.751c-11.597-16.031-18.626-35.571-18.626-56.868 0-53.788 43.605-97.389 97.395-97.389 21.293 0 40.832 7.023 56.86 18.619-17.692-24.465-46.28-40.537-78.778-40.537-53.79 0-97.395 43.599-97.395 97.389 0.001 32.5 16.078 61.096 40.544 78.786z" fill="" /><path d="M806.724 651.121c25.348 30.28 40.647 69.264 40.647 111.845 0 96.34-78.094 174.433-174.429 174.433-42.584 0-81.568-15.296-111.854-40.647 31.998 38.22 80.025 62.565 133.771 62.565 96.335 0 174.429-78.094 174.429-174.433 0.001-53.744-24.342-101.77-62.564-133.763z" fill="" /></svg>